# xmcd
#
# Track frame offsets:
#	150
#	19615
#	36144
#	52661
#
# Disc length: 942 seconds
#
# Revision: 0
# Processed by: cddbd v1.5.2PL0 Copyright (c) Steve Scherf et al.
# Submitted via: audiograbber 1.83.01
#
DISCID=2103ac04
DTITLE=VibekingZ (And Maliq) - This Letter (P.S: i still Luv u)
DYEAR=2006
DGENRE=R&B
TTITLE0=This Letter (Video Edit)
TTITLE1=This Letter (Album Version)
TTITLE2=This Letter (Radio Version)
TTITLE3=Bigg up Bigg up (feat.Big Steve)
EXTD=
EXTT0=
EXTT1=
EXTT2=
EXTT3=
PLAYORDER=
